<svg width="182" height="182" viewBox="0 0 182 182" fill="none" xmlns="http://www.w3.org/2000/svg">
<mask id="mask0_139_1357" style="mask-type:alpha" maskUnits="userSpaceOnUse" x="0" y="0" width="182" height="182">
<rect y="0.27832" width="181.721" height="181.721" fill="#D9D9D9"/>
</mask>
<g mask="url(#mask0_139_1357)">
<path d="M124.934 174.428C123.861 174.428 122.962 174.065 122.236 173.34C121.511 172.614 121.148 171.715 121.148 170.642C121.148 169.57 121.511 168.67 122.236 167.945C122.962 167.219 123.861 166.856 124.934 166.856H151.435V155.499H124.934C123.861 155.499 122.962 155.136 122.236 154.41C121.511 153.685 121.148 152.786 121.148 151.713C121.148 150.64 121.511 149.741 122.236 149.016C122.962 148.29 123.861 147.927 124.934 147.927H151.435V136.569H124.934C123.861 136.569 122.962 136.207 122.236 135.481C121.511 134.755 121.148 133.856 121.148 132.784C121.148 131.711 121.511 130.812 122.236 130.086C122.962 129.361 123.861 128.998 124.934 128.998H151.435V117.64H124.934C123.861 117.64 122.962 117.277 122.236 116.552C121.511 115.826 121.148 114.927 121.148 113.854C121.148 112.782 121.511 111.883 122.236 111.157C122.962 110.431 123.861 110.068 124.934 110.068H151.435V98.7109H124.934C123.861 98.7109 122.962 98.3481 122.236 97.6224C121.511 96.8968 121.148 95.9977 121.148 94.925C121.148 93.8523 121.511 92.9532 122.236 92.2276C122.962 91.502 123.861 91.1391 124.934 91.1391H151.435V79.7815H124.934C123.861 79.7815 122.962 79.4187 122.236 78.6931C121.511 77.9675 121.148 77.0683 121.148 75.9957C121.148 74.923 121.511 74.0239 122.236 73.2983C122.962 72.5726 123.861 72.2098 124.934 72.2098H155.221C158.344 72.2098 161.018 73.3216 163.243 75.5452C165.467 77.77 166.578 80.4441 166.578 83.5674V163.071C166.578 166.194 165.467 168.867 163.243 171.091C161.018 173.316 158.344 174.428 155.221 174.428H124.934ZM60.5401 117.64C69.9013 117.64 77.926 113.168 84.6144 104.225C91.3027 95.2815 94.6469 84.618 94.6469 72.2344C94.6469 59.8509 91.3141 49.1792 84.6485 40.2193C77.9816 31.2594 69.9681 26.7795 60.6082 26.7795C51.2471 26.7795 43.2223 31.2512 36.5339 40.1947C29.8456 49.1381 26.5014 59.8017 26.5014 72.1852C26.5014 84.5688 29.8342 95.2405 36.4999 104.2C43.1668 113.16 51.1802 117.64 60.5401 117.64ZM60.5742 174.428C55.6525 174.428 51.6458 172.598 48.554 168.939C45.4623 165.279 44.2318 161.051 44.8628 156.256L48.0808 126.916C38.49 123.508 30.6027 116.788 24.4192 106.756C18.2356 96.7233 15.1438 85.208 15.1438 72.2098C15.1438 56.4354 19.5606 43.0271 28.3943 31.985C37.228 20.9429 47.9546 15.4219 60.5742 15.4219C73.1937 15.4219 83.9203 20.9429 92.754 31.985C101.588 43.0271 106.005 56.4354 106.005 72.2098C106.005 85.208 102.881 96.7233 96.6345 106.756C90.3878 116.788 82.4691 123.508 72.8782 126.916L76.2855 156.256C76.9165 161.051 75.6861 165.279 72.5943 168.939C69.5025 172.598 65.4958 174.428 60.5742 174.428Z" fill="white"/>
</g>
</svg>
