<svg width="183" height="183" viewBox="0 0 183 183" fill="none" xmlns="http://www.w3.org/2000/svg">
<mask id="mask0_139_1369" style="mask-type:alpha" maskUnits="userSpaceOnUse" x="0" y="0" width="183" height="183">
<rect x="0.486328" y="0.493164" width="181.721" height="181.721" fill="#D9D9D9"/>
</mask>
<g mask="url(#mask0_139_1369)">
<path d="M91.3468 167.072C74.058 167.072 59.6402 161.141 48.0933 149.278C36.5464 137.416 30.7729 122.651 30.7729 104.984C30.7729 96.907 32.6028 88.8936 36.2625 80.9433C39.9221 72.993 44.4967 65.3582 49.9862 58.0388C55.4757 50.7195 61.4069 43.8734 67.7798 37.5005C74.1526 31.1277 80.1154 25.4804 85.668 20.5588C86.5513 19.8016 87.4663 19.2653 88.4127 18.9498C89.3592 18.6343 90.3372 18.4766 91.3468 18.4766C92.3563 18.4766 93.3343 18.6343 94.2808 18.9498C95.2273 19.2653 96.1422 19.8016 97.0256 20.5588C102.578 25.4804 108.541 31.1277 114.914 37.5005C121.287 43.8734 127.218 50.7195 132.707 58.0388C138.197 65.3582 142.771 72.993 146.431 80.9433C150.091 88.8936 151.921 96.907 151.921 104.984C151.921 122.651 146.147 137.416 134.6 149.278C123.053 161.141 108.636 167.072 91.3468 167.072ZM91.3468 155.714C105.481 155.714 117.217 150.887 126.555 141.233C135.894 131.579 140.563 119.496 140.563 104.984C140.563 95.0141 136.367 83.6881 127.975 71.0054C119.583 58.3228 107.374 44.9145 91.3468 30.7806C75.3199 44.9145 63.1105 58.3228 54.7185 71.0054C46.3265 83.6881 42.1305 95.0141 42.1305 104.984C42.1305 119.496 46.7998 131.579 56.1382 141.233C65.4767 150.887 77.2129 155.714 91.3468 155.714ZM91.1575 142.842C93.1766 142.842 94.7225 142.495 95.7952 141.801C96.8678 141.107 97.4041 140.066 97.4041 138.678C97.4041 137.29 96.8678 136.217 95.7952 135.46C94.7225 134.703 93.1135 134.324 90.9682 134.324C85.668 134.324 80.2731 132.652 74.7836 129.308C69.2941 125.964 65.7922 120.064 64.2778 111.609C64.0255 110.473 63.4576 109.558 62.5742 108.864C61.6908 108.17 60.7444 107.823 59.7348 107.823C58.3467 107.823 57.274 108.359 56.5168 109.432C55.7596 110.505 55.5073 111.609 55.7596 112.745C57.6526 123.345 62.1325 131.011 69.1995 135.744C76.2664 140.476 83.5857 142.842 91.1575 142.842Z" fill="white"/>
</g>
</svg>
