<svg width="183" height="183" viewBox="0 0 183 183" fill="none" xmlns="http://www.w3.org/2000/svg">
<mask id="mask0_139_1333" style="mask-type:alpha" maskUnits="userSpaceOnUse" x="0" y="0" width="183" height="183">
<rect x="0.796143" y="0.417969" width="181.721" height="181.721" fill="#D9D9D9"/>
</mask>
<g mask="url(#mask0_139_1333)">
<path d="M91.6572 132.922C95.9478 132.922 99.9861 132.134 103.772 130.556C107.558 128.979 111.091 126.739 114.372 123.836C115.508 122.827 116.076 121.502 116.076 119.861C116.076 118.221 115.508 116.895 114.372 115.886C113.237 114.876 111.88 114.372 110.303 114.372C108.725 114.372 107.305 114.876 106.043 115.886C103.898 117.526 101.627 118.852 99.2289 119.861C96.8312 120.871 94.3073 121.375 91.6572 121.375C89.0071 121.375 86.4832 120.871 84.0855 119.861C81.6878 118.852 79.4162 117.526 77.2709 115.886C76.009 114.876 74.5893 114.372 73.0118 114.372C71.4344 114.372 70.0778 114.876 68.942 115.886C67.8063 116.895 67.2384 118.221 67.2384 119.861C67.2384 121.502 67.8063 122.827 68.942 123.836C72.2231 126.613 75.7566 128.821 79.5424 130.461C83.3283 132.102 87.3666 132.922 91.6572 132.922ZM91.6572 166.995C81.183 166.995 71.3397 165.007 62.1275 161.032C52.9152 157.057 44.9018 151.662 38.0872 144.848C31.2727 138.033 25.8778 130.02 21.9027 120.808C17.9275 111.595 15.9399 101.752 15.9399 91.2778C15.9399 80.8036 17.9275 70.9603 21.9027 61.7481C25.8778 52.5358 31.2727 44.5224 38.0872 37.7078C44.9018 30.8933 52.9152 25.4984 62.1275 21.5233C71.3397 17.5481 81.183 15.5605 91.6572 15.5605C102.131 15.5605 111.975 17.5481 121.187 21.5233C130.399 25.4984 138.413 30.8933 145.227 37.7078C152.042 44.5224 157.437 52.5358 161.412 61.7481C165.387 70.9603 167.374 80.8036 167.374 91.2778C167.374 101.752 165.387 111.595 161.412 120.808C157.437 130.02 152.042 138.033 145.227 144.848C138.413 151.662 130.399 157.057 121.187 161.032C111.975 165.007 102.131 166.995 91.6572 166.995ZM91.6572 155.637C109.625 155.637 124.843 149.403 137.313 136.933C149.782 124.463 156.017 109.244 156.017 91.2778C156.017 73.3101 149.782 58.0916 137.313 45.6222C124.843 33.1528 109.625 26.9181 91.6572 26.9181C73.6908 26.9181 58.4722 33.1528 46.0016 45.6222C33.5322 58.0916 27.2975 73.3101 27.2975 91.2778C27.2975 109.244 33.5322 124.463 46.0016 136.933C58.4722 149.403 73.6908 155.637 91.6572 155.637ZM65.124 91.2778C69.2682 91.2778 72.991 89.9212 76.2923 87.208C79.5948 84.4948 82.1295 81.1822 83.8962 77.2701C84.5272 75.8454 84.4641 74.4484 83.7069 73.0792C82.9497 71.7087 81.7849 70.8341 80.2125 70.4556C78.8824 70.077 77.5233 70.2347 76.1352 70.9288C74.747 71.6229 73.7375 72.664 73.1065 74.0521C72.2231 75.6927 71.1189 77.0808 69.7938 78.2166C68.4688 79.3523 66.9229 79.9202 65.1562 79.9202C63.3894 79.9202 61.812 79.3208 60.4238 78.1219C59.0357 76.9231 57.963 75.5034 57.2059 73.8628C56.5749 72.4747 55.5653 71.4651 54.1772 70.8342C52.789 70.2032 51.4009 70.077 50.0127 70.4556C48.4984 70.8341 47.3942 71.7491 46.7001 73.2003C46.006 74.6516 45.9745 76.1344 46.6054 77.6487C48.3722 81.5608 50.8645 84.8103 54.0825 87.3973C57.3005 89.9843 60.981 91.2778 65.124 91.2778ZM118.126 91.2778C122.27 91.2778 125.993 89.9212 129.294 87.208C132.597 84.4948 135.132 81.1822 136.898 77.2701C137.529 75.8454 137.466 74.4484 136.709 73.0792C135.952 71.7087 134.787 70.8341 133.215 70.4556C131.885 70.077 130.525 70.2347 129.137 70.9288C127.749 71.6229 126.74 72.664 126.109 74.0521C125.225 75.6927 124.121 77.0808 122.796 78.2166C121.471 79.3523 119.925 79.9202 118.158 79.9202C116.392 79.9202 114.814 79.3208 113.426 78.1219C112.038 76.9231 110.965 75.5034 110.208 73.8628C109.577 72.4747 108.567 71.4651 107.179 70.8342C105.791 70.2032 104.403 70.077 103.015 70.4556C101.5 70.8341 100.396 71.7491 99.7022 73.2003C99.0081 74.6516 98.9765 76.1344 99.6075 77.6487C101.374 81.5608 103.867 84.8103 107.085 87.3973C110.303 89.9843 113.983 91.2778 118.126 91.2778Z" fill="white"/>
</g>
</svg>
